# xmcd
#
# Track frame offsets:
#	150
#	15553
#	29361
#	44588
#	64424
#	82170
#	97956
#	114867
#	132869
#	146656
#
# Disc length: 2138 seconds
#
# Revision: 0
# Processed by: cddbd v1.5.2PL0 Copyright (c) Steve Scherf et al.
# Submitted via: dBpowerAMP V4.0
#
DISCID=8608580a
DTITLE=Wilson Meadows - Love Bomb
DYEAR=2006
DGENRE=Blues
TTITLE0=Love Bomb
TTITLE1=I Wanna See You
TTITLE2=Step
TTITLE3=Dedicated to The One I Love
TTITLE4=I Got The Right One
TTITLE5=Explain It
TTITLE6=She's Gone
TTITLE7=California Girl
TTITLE8=Everybody Needs Help
TTITLE9=Body Power
EXTD=
EXTT0=
EXTT1=
EXTT2=
EXTT3=
EXTT4=
EXTT5=
EXTT6=
EXTT7=
EXTT8=
EXTT9=
PLAYORDER=
